<svg xmlns="http://www.w3.org/2000/svg" viewBox="0 0 240 240" role="img" aria-label="星月系青年精灵">
  <defs>
    <radialGradient id="b" cx="38%" cy="23%" r="78%"><stop offset="0" stop-color="#fff5ff"/><stop offset=".42" stop-color="#ad62f6"/><stop offset="1" stop-color="#3d1b80"/></radialGradient>
  </defs>
  <ellipse cx="120" cy="209" rx="75" ry="14" fill="#67449a" opacity=".28"/>
  <path d="M60 102c-26-20-36-47-30-79 35 7 55 29 61 66Z" fill="#7043c8" stroke="#482080" stroke-width="7"/>
  <path d="M180 102c26-20 36-47 30-79-35 7-55 29-61 66Z" fill="#7043c8" stroke="#482080" stroke-width="7"/>
  <path d="M101 58c-3-19 5-33 22-43 10 21 4 37-22 43Z" fill="#ffc452" stroke="#b47122" stroke-width="5"/>
  <path d="M139 58c3-19-5-33-22-43-10 21-4 37 22 43Z" fill="#ffc452" stroke="#b47122" stroke-width="5"/>
  <path d="M120 45c47 0 78 39 78 88 0 53-31 83-78 83s-78-30-78-83c0-49 31-88 78-88Z" fill="url(#b)" stroke="#482080" stroke-width="8"/>
  <circle cx="91" cy="129" r="10" fill="#21143d"/>
  <circle cx="149" cy="129" r="10" fill="#21143d"/>
  <path d="M100 160c13 12 31 12 44 0" fill="none" stroke="#21143d" stroke-width="8" stroke-linecap="round"/>
  <path d="M119 74l7 14 15 5-14 8-6 15-7-14-15-6 14-7 6-15Z" fill="#ffd95f"/>
  <path d="M164 151l5 10 11 4-10 5-5 11-5-10-11-4 10-5 5-11Z" fill="#ffd469"/>
  <path d="M74 151c13-9 28-9 42 0" fill="none" stroke="#ffcf6e" stroke-width="5" stroke-linecap="round"/>
</svg>
