<svg xmlns="http://www.w3.org/2000/svg" viewBox="0 0 240 240" role="img" aria-label="星月系幼年精灵">
  <defs>
    <radialGradient id="b" cx="38%" cy="25%" r="76%"><stop offset="0" stop-color="#fff5ff"/><stop offset=".45" stop-color="#b86cff"/><stop offset="1" stop-color="#48208a"/></radialGradient>
  </defs>
  <ellipse cx="120" cy="207" rx="70" ry="14" fill="#7650a8" opacity=".28"/>
  <path d="M65 95c-22-16-32-39-29-68 30 5 47 24 53 55Z" fill="#7d4ed8" stroke="#51278c" stroke-width="6"/>
  <path d="M175 95c22-16 32-39 29-68-30 5-47 24-53 55Z" fill="#7d4ed8" stroke="#51278c" stroke-width="6"/>
  <path d="M120 56c45 0 79 35 79 79 0 46-34 78-79 78s-79-32-79-78c0-44 34-79 79-79Z" fill="url(#b)" stroke="#51278c" stroke-width="7"/>
  <circle cx="90" cy="132" r="11" fill="#23173f"/>
  <circle cx="151" cy="132" r="11" fill="#23173f"/>
  <circle cx="94" cy="128" r="3" fill="#fff"/>
  <circle cx="155" cy="128" r="3" fill="#fff"/>
  <path d="M102 162c12 10 28 10 39 0" fill="none" stroke="#23173f" stroke-width="7" stroke-linecap="round"/>
  <path d="M120 72l7 15 16 6-15 8-7 16-8-15-16-7 15-8 8-15Z" fill="#ffdc62"/>
  <path d="M171 139l5 10 11 4-10 5-5 11-5-10-11-4 10-5 5-11Z" fill="#ffd469"/>
  <circle cx="80" cy="153" r="8" fill="#ffafd3" opacity=".7"/>
  <circle cx="160" cy="153" r="8" fill="#ffafd3" opacity=".7"/>
</svg>
