<svg xmlns="http://www.w3.org/2000/svg" viewBox="0 0 240 240" role="img" aria-label="海洋系青年精灵">
  <defs>
    <radialGradient id="b" cx="38%" cy="23%" r="78%"><stop offset="0" stop-color="#fffefa"/><stop offset=".42" stop-color="#6be5ff"/><stop offset="1" stop-color="#087db7"/></radialGradient>
    <linearGradient id="f" x1="0" x2="1"><stop offset="0" stop-color="#dffbff"/><stop offset="1" stop-color="#5fd5ff"/></linearGradient>
  </defs>
  <ellipse cx="120" cy="209" rx="75" ry="14" fill="#2f8eae" opacity=".28"/>
  <path d="M59 111c-30-23-39-53-26-87 34 12 51 39 51 76Z" fill="url(#f)" stroke="#087eb5" stroke-width="7"/>
  <path d="M181 111c30-23 39-53 26-87-34 12-51 39-51 76Z" fill="url(#f)" stroke="#087eb5" stroke-width="7"/>
  <path d="M120 45c47 0 78 39 78 88 0 53-31 83-78 83s-78-30-78-83c0-49 31-88 78-88Z" fill="url(#b)" stroke="#076c9d" stroke-width="8"/>
  <path d="M104 43c11-24 31-34 61-29-8 30-27 42-61 29Z" fill="#33cdea" stroke="#087eb5" stroke-width="7"/>
  <circle cx="91" cy="129" r="10" fill="#11394d"/>
  <circle cx="149" cy="129" r="10" fill="#11394d"/>
  <path d="M100 160c13 12 31 12 44 0" fill="none" stroke="#11394d" stroke-width="8" stroke-linecap="round"/>
  <path d="M63 135c-24 8-39 25-45 51 29 4 52-8 69-35Z" fill="url(#f)" stroke="#3aaad0" stroke-width="5" opacity=".85"/>
  <path d="M177 135c24 8 39 25 45 51-29 4-52-8-69-35Z" fill="url(#f)" stroke="#3aaad0" stroke-width="5" opacity=".85"/>
  <circle cx="113" cy="87" r="9" fill="#f9e7ff" stroke="#52add0" stroke-width="4"/>
  <circle cx="132" cy="79" r="7" fill="#fff8bf" stroke="#52add0" stroke-width="4"/>
</svg>
